<svg version="1.1" id="Layer_1" xmlns="http://www.w3.org/2000/svg" xmlns:xlink="http://www.w3.org/1999/xlink" x="0px" y="0px"
	 width="100%" viewBox="0 0 250 207" enable-background="new 0 0 250 207" xml:space="preserve">
<path fill="#FCFDFE" opacity="1.000000" stroke="none" 
	d="
M1.000000,77.000000 
	C1.000000,51.333340 1.000000,26.166676 1.000000,1.000010 
	C84.333313,1.000007 167.666626,1.000007 250.999954,1.000003 
	C250.999969,69.999969 250.999969,138.999939 250.999985,207.999939 
	C167.666718,207.999954 84.333427,207.999954 1.000070,207.999969 
	C1.000000,164.500000 1.000000,121.000000 1.000000,77.000000 
M223.130859,186.512054 
	C223.412048,186.700607 223.693237,186.889175 223.916702,187.032379 
	C223.916702,187.032379 223.876526,187.093811 224.017136,187.596344 
	C224.293839,187.787354 224.570526,187.978363 224.888885,188.030853 
	C224.888885,188.030853 224.793900,188.139954 224.867615,188.721588 
	C225.245987,189.144196 225.624374,189.566803 225.998779,190.000061 
	C225.998779,190.000061 226.009537,190.000259 226.110992,190.511673 
	C226.375610,190.718964 226.640228,190.926239 226.935211,191.041702 
	C226.935211,191.041702 226.846313,191.079803 226.928299,191.667496 
	C227.282715,192.114059 227.637146,192.560608 228.000000,193.000000 
	C228.000000,193.000000 227.991440,193.006485 228.081970,193.566666 
	C228.332031,193.841248 228.582108,194.115829 228.866318,194.719040 
	C228.866318,194.719040 229.044846,194.997025 229.084702,195.513718 
	C229.321487,195.743851 229.558273,195.973984 229.848892,196.073715 
	C229.848892,196.073715 229.734558,196.156357 229.782715,196.828918 
	C230.153580,197.617859 230.524445,198.406815 230.922470,199.610901 
	C230.922470,199.610901 231.073669,199.998489 231.000656,200.685043 
	C231.443512,201.384415 231.886368,202.083801 232.329208,202.783188 
	C232.632538,202.308075 232.935867,201.832977 233.289536,201.227081 
	C233.289536,201.227081 233.206085,201.114471 233.752380,200.596283 
	C233.889008,199.079987 234.025620,197.563705 234.486847,195.612564 
	C234.434525,195.090912 234.382217,194.569244 234.630753,193.339554 
	C234.111130,191.200699 233.591522,189.061844 233.015244,186.990433 
	C233.015244,186.990433 233.099396,186.964432 233.117996,186.286575 
	C232.764526,185.503006 232.411041,184.719437 232.003647,183.993347 
	C232.003647,183.993347 232.077698,183.966385 232.049820,183.358170 
	C231.720306,182.884262 231.390793,182.410355 231.002213,181.994003 
	C231.002213,181.994003 231.077988,181.961533 231.016495,181.375916 
	C230.671570,180.928726 230.326645,180.481537 230.005188,180.004456 
	C230.005188,180.004456 229.967529,180.008408 229.873016,179.488998 
	C229.599380,179.281479 229.325760,179.073975 228.913284,178.446167 
	C228.782074,178.161911 228.569275,177.966553 228.105682,177.309158 
	C227.706131,176.927277 227.306595,176.545380 226.934494,176.067429 
	C226.934494,176.067429 226.835083,176.057480 226.761063,175.587860 
	C226.589218,175.278473 226.326355,175.127396 225.614670,174.565887 
	C222.508865,172.336624 219.403076,170.107346 215.874008,167.307053 
	C212.578995,165.556030 209.283981,163.805008 205.633347,161.573151 
	C205.080353,161.386154 204.527359,161.199173 203.602539,160.474899 
	C202.397293,159.996613 201.192032,159.518326 199.755371,158.816147 
	C199.755371,158.816147 199.433563,158.805450 198.966675,158.269897 
	C195.318924,156.497330 191.671188,154.724762 187.676163,152.403763 
	C186.158813,151.586777 184.641449,150.769791 182.802353,149.365051 
	C180.657761,147.874527 178.513168,146.384003 176.012329,144.293274 
	C173.435303,140.863144 170.858276,137.433029 168.243698,133.952927 
	C164.965317,140.559570 166.588608,146.661865 172.976746,152.017960 
	C172.976746,152.017960 172.954346,152.040161 173.222855,152.604706 
	C174.087708,153.156754 174.952576,153.708801 175.895569,154.161957 
	C175.895569,154.161957 175.772247,154.187943 176.020767,154.706482 
	C176.497040,154.986221 176.973297,155.265976 177.556854,155.620102 
	C177.556854,155.620102 177.613220,155.737839 177.915100,156.199783 
	C178.567993,156.531082 179.220886,156.862396 179.925537,157.110809 
	C179.925537,157.110809 179.829865,157.090759 180.005188,157.606918 
	C180.331375,157.743408 180.657562,157.879898 181.379761,158.572372 
	C183.190140,159.591797 185.000504,160.611206 187.285843,162.048752 
	C190.486755,163.739883 193.687683,165.431015 196.937088,167.076782 
	C196.937088,167.076782 196.873825,167.058701 197.075760,167.528656 
	C197.382446,167.642227 197.689148,167.755783 198.439362,168.267838 
	C198.969971,168.510666 199.500580,168.753510 200.447678,169.529007 
	C205.313950,172.640274 210.180237,175.751526 215.406952,179.418564 
	C217.592072,181.292252 219.777176,183.165939 222.003586,185.009872 
	C222.003586,185.009872 221.957138,185.025131 222.135681,185.507629 
	C222.418594,185.685638 222.701508,185.863647 223.001358,185.998779 
	C223.001358,185.998779 222.958557,186.015930 223.130859,186.512054 
M76.835045,195.119446 
	C76.835045,195.119446 76.707619,195.165085 76.815109,195.761063 
	C77.191917,196.200882 77.568733,196.640686 78.002907,197.017242 
	C78.002907,197.017242 77.925003,197.052124 78.201424,197.653229 
	C79.158836,197.455658 80.116241,197.258072 80.996315,197.009735 
	C80.996315,197.009735 81.060837,197.076675 81.808609,196.621872 
	C81.909081,192.024811 82.110939,187.425537 82.011261,182.832825 
	C81.994431,182.057892 80.677002,181.311218 79.328300,180.372696 
	C78.911972,180.481903 78.495644,180.591110 77.396996,180.788010 
	C77.313171,182.181686 77.229340,183.575348 76.982605,185.596817 
	C76.188538,185.124191 75.066788,184.843811 74.657158,184.145630 
	C72.888794,181.131561 70.887360,179.215302 67.283112,181.575974 
	C67.283112,186.929962 67.283112,192.321991 67.283112,198.030334 
	C69.008469,197.914078 70.411774,197.819519 71.013145,197.778992 
	C72.043076,195.155228 72.832619,193.143829 73.825615,191.703720 
	C74.217964,192.140244 74.610313,192.576752 75.113159,193.475067 
	C75.259399,193.784180 75.499214,193.976791 75.984802,194.589569 
	C76.263649,194.811081 76.542496,195.032593 76.835045,195.119446 
M215.860947,120.006195 
	C216.646393,119.384094 217.431839,118.761993 218.841614,117.948799 
	C220.244141,116.343369 221.646667,114.737938 223.753815,112.997482 
	C229.768097,107.591980 231.955521,100.351791 228.907761,95.044571 
	C226.730728,98.312569 224.476395,101.696564 221.608932,105.332062 
	C220.052185,106.840080 218.495438,108.348099 216.327316,110.007004 
	C215.171951,110.891449 214.016602,111.775902 212.230713,112.858177 
	C211.161087,113.628677 210.091446,114.399170 208.385605,115.287132 
	C206.930038,116.238922 205.474472,117.190720 203.341812,118.248756 
	C200.927017,119.608772 198.512222,120.968781 195.410507,122.404503 
	C191.213028,124.510994 187.015564,126.617477 181.180450,129.545807 
	C184.372025,131.813080 186.455154,134.480316 188.368118,134.363403 
	C190.997314,134.202698 193.497665,131.934113 196.807175,130.413589 
	C199.206848,129.262512 201.606522,128.111420 204.677139,126.820229 
	C206.711136,125.440926 208.745148,124.061623 211.407074,122.690269 
	C212.689209,121.828766 213.971344,120.967262 215.860947,120.006195 
M178.264252,118.082146 
	C175.093033,119.337830 175.460129,121.850838 177.056061,123.657257 
	C178.035797,124.766190 180.378494,124.670975 182.813141,124.997726 
	C184.876282,124.001846 186.939423,123.005974 189.662109,121.941956 
	C190.785400,121.317406 191.908691,120.692863 193.610306,119.982498 
	C194.077133,119.675323 194.543976,119.368149 195.700272,118.963943 
	C197.473267,117.991974 199.246262,117.020004 201.618362,115.945183 
	C202.434509,115.395142 203.250656,114.845100 204.760468,114.103676 
	C207.503174,112.400589 210.245865,110.697510 213.614273,108.803406 
	C215.073456,107.534386 216.532639,106.265366 218.629715,104.732368 
	C223.694748,99.786064 228.007874,94.565163 225.771835,87.300629 
	C222.200180,91.076736 218.631485,94.849716 214.518112,98.822479 
	C213.011581,99.880005 211.505035,100.937523 209.352234,102.130699 
	C207.763809,103.178741 206.175369,104.226776 203.945587,105.463799 
	C202.597321,106.253769 201.249054,107.043747 199.222931,107.930084 
	C197.821152,108.667732 196.419357,109.405388 194.377747,110.276657 
	C192.897034,111.131844 191.416336,111.987022 189.238358,113.006287 
	C187.171799,114.031792 185.105255,115.057297 182.373001,116.092842 
	C181.248291,116.727371 180.123566,117.361893 178.264252,118.082146 
M218.177917,165.663574 
	C219.093933,166.178467 220.009933,166.693375 221.117722,167.641113 
	C221.343140,167.890564 221.623932,168.018494 222.312668,168.588623 
	C224.830078,170.832153 227.347504,173.075699 230.063858,175.959229 
	C232.772842,181.157410 235.481827,186.355591 238.122864,191.423401 
	C239.837387,183.351837 239.823273,175.226089 233.947342,167.287888 
	C229.953903,163.663162 225.960480,160.038422 221.475998,155.999374 
	C220.719742,155.642624 219.963470,155.285858 218.833908,154.364120 
	C216.867050,153.343384 214.900192,152.322647 212.355545,150.903503 
	C210.034607,149.884918 207.713654,148.866333 204.927963,147.307526 
	C202.994217,146.517288 201.060471,145.727051 198.708969,144.370682 
	C195.866943,143.129105 193.024918,141.887527 189.714981,140.168320 
	C186.828125,138.734940 183.941284,137.301544 180.771439,135.260925 
	C178.513504,132.835724 176.255569,130.410507 174.095490,127.244797 
	C173.558899,125.711456 173.022324,124.178108 172.485733,122.644768 
	C171.976105,122.715263 171.466476,122.785759 170.956848,122.856255 
	C171.247620,126.433479 171.538376,130.010712 171.772873,133.809937 
	C171.772873,133.809937 171.952316,133.952240 171.954422,134.610062 
	C172.287277,135.130600 172.620132,135.651138 173.055801,136.708344 
	C173.385742,137.129730 173.715683,137.551102 174.112473,138.513733 
	C174.397736,138.726730 174.682983,138.939728 175.201630,139.750931 
	C176.777496,141.191589 178.353378,142.632233 179.969833,144.036682 
	C179.969833,144.036682 179.916641,144.035812 180.111267,144.506195 
	C180.404007,144.651138 180.696732,144.796066 181.366287,145.494492 
	C183.241318,146.614365 185.116333,147.734253 187.622604,149.151031 
	C190.418900,150.722168 193.215179,152.293304 196.587524,154.278427 
	C199.398560,155.523148 202.209595,156.767868 205.447159,158.551056 
	C208.301208,160.000656 211.155243,161.450272 214.499878,163.333649 
	C215.641739,163.927643 216.783615,164.521622 217.999237,165.042542 
	C217.999237,165.042542 217.900925,165.075867 218.177917,165.663574 
M172.265152,184.223450 
	C172.451782,185.959167 172.638412,187.694901 172.935059,189.762665 
	C172.935059,189.762665 173.223480,189.960632 173.412079,190.504959 
	C173.940414,190.676071 174.468750,190.847183 175.641174,191.384293 
	C177.048248,191.653412 178.455307,191.922531 179.862381,192.191666 
	C179.842499,192.516754 179.822601,192.841843 179.802719,193.166931 
	C177.560669,193.166931 175.318634,193.166931 171.289459,193.166931 
	C172.690994,195.443863 173.201675,197.445663 174.274963,197.815735 
	C179.110657,199.483047 183.429077,197.843445 184.326859,194.301300 
	C185.937408,187.947067 180.965729,188.141525 176.857803,187.523743 
	C176.721588,187.078949 176.585358,186.634155 176.449127,186.189362 
	C178.237701,184.938507 180.026260,183.687653 183.039459,181.580338 
	C179.932755,181.358154 177.973633,181.218048 175.432068,181.072372 
	C175.160507,181.332565 174.888947,181.592743 174.090988,182.012817 
	C173.689041,182.588394 173.287094,183.163956 172.265152,184.223450 
M149.276459,187.003555 
	C143.430481,185.769730 150.279327,183.329529 148.707474,181.266937 
	C146.551392,180.558853 144.141785,179.753708 141.913544,180.103638 
	C137.519485,180.793686 134.550552,183.943329 134.301025,188.170639 
	C134.139023,190.915070 135.369995,194.482529 137.263626,196.430176 
	C139.961655,199.205185 143.838791,198.206909 146.927994,196.174316 
	C148.504333,195.137131 149.647141,193.441086 150.965775,192.895920 
	C151.044327,194.486893 151.122864,196.077850 151.267273,199.003220 
	C153.742172,197.472473 156.586960,196.616501 156.699844,195.487381 
	C157.200272,190.481903 156.916595,185.398026 156.916595,180.449219 
	C152.965027,179.795639 150.982269,180.592438 151.175171,184.369278 
	C151.218887,185.225647 150.441910,186.123917 149.276459,187.003555 
M112.953735,168.994217 
	C109.167244,168.644089 105.380753,168.293976 101.323479,167.918808 
	C101.773422,165.792969 102.196899,163.726181 102.649033,161.665680 
	C112.073189,118.717781 121.540855,75.779274 130.804672,32.796822 
	C131.253082,30.716278 130.533661,27.819878 129.296341,26.042540 
	C125.029579,19.913633 120.183044,14.191736 115.787094,8.147710 
	C114.047318,5.755674 112.189468,4.907166 109.202385,4.922789 
	C83.216858,5.058694 57.230324,5.001675 31.244087,5.002004 
	C30.167740,5.002017 29.091393,5.002006 27.092215,5.002006 
	C32.505554,12.093500 37.387955,18.312809 42.021374,24.712385 
	C42.918507,25.951483 43.443474,28.023132 43.128448,29.494074 
	C35.999233,62.782745 28.729067,96.041229 21.484856,129.305267 
	C19.137608,140.083374 16.788862,150.861145 14.429959,161.688843 
	C27.848764,161.688843 40.767910,161.688843 53.567432,161.688843 
	C55.942200,150.843918 57.997009,140.287735 60.603161,129.869476 
	C63.543900,118.113686 66.316452,106.435661 60.900871,94.711258 
	C59.365013,91.386223 60.292473,89.595161 63.297604,87.974327 
	C68.198143,85.331200 71.420341,81.950302 72.467155,75.673538 
	C74.737587,62.059769 78.302399,48.661873 81.315018,35.277599 
	C91.822205,35.277599 101.910591,35.277599 112.469337,35.277599 
	C109.702599,47.868816 106.771187,60.081543 104.456947,72.410126 
	C103.737419,76.243210 101.901489,77.994423 98.710022,79.526184 
	C90.079521,83.668404 81.612831,88.150932 73.005035,92.342125 
	C70.524506,93.549904 69.772255,94.618706 70.598457,97.638023 
	C75.000755,113.725922 78.992180,129.925751 83.207275,146.065567 
	C86.079262,157.062576 89.084953,168.024658 92.063370,179.123535 
	C99.158310,175.829147 105.886063,172.705246 112.953735,168.994217 
M128.499573,162.689407 
	C134.807022,162.689407 141.114456,162.689407 147.623672,162.689407 
	C152.467590,140.829269 157.212280,119.416908 161.956223,98.007950 
	C165.406662,98.007950 168.088181,97.785851 170.719345,98.055359 
	C175.800568,98.575829 179.867645,96.981262 183.931396,93.824692 
	C194.047028,85.967278 204.524307,78.575783 214.841431,70.976913 
	C215.799988,70.270905 216.652023,69.420242 218.482025,67.829758 
	C201.169373,67.829758 185.110870,67.829758 168.527374,67.829758 
	C170.909454,56.829029 173.173721,46.372368 175.403183,36.076401 
	C181.189224,36.076401 186.411560,36.076401 191.827621,36.076401 
	C190.875946,40.874363 190.011459,45.232670 189.039490,50.132931 
	C200.850586,50.132931 212.320450,50.004604 223.784241,50.212410 
	C227.151840,50.273457 228.402771,49.038116 229.002502,45.900452 
	C230.401703,38.580082 232.143250,31.325771 233.687973,24.032389 
	C234.934921,18.144960 236.096863,12.239528 237.322495,6.214314 
	C198.520798,6.214314 160.526047,6.214314 121.863022,6.214314 
	C126.833412,12.694098 131.494965,18.523252 135.825134,24.588970 
	C136.921661,26.124989 137.749008,28.584921 137.371719,30.333731 
	C129.089767,68.722145 120.608772,107.067566 112.199753,145.428650 
	C110.979866,150.993637 109.932915,156.596527 108.704216,162.686005 
	C115.550224,162.686005 121.525246,162.686005 128.499573,162.689407 
M129.869980,194.201324 
	C130.633987,192.235809 131.761993,190.327637 132.082642,188.292282 
	C132.665405,184.593170 131.809921,181.229126 127.652214,180.044754 
	C123.311584,178.808289 118.492523,180.939026 116.756050,184.830307 
	C115.050804,188.651596 114.468315,192.772324 117.862061,195.837326 
	C121.765610,199.362732 125.784401,197.969330 129.869980,194.201324 
M86.826302,182.265274 
	C82.359009,188.474060 82.864540,194.708435 88.043350,197.045456 
	C92.487679,199.051056 95.917580,197.035217 98.394569,193.692184 
	C100.964622,190.223572 101.907616,186.125336 99.151649,182.186386 
	C97.026825,179.149475 92.546448,179.108673 86.826302,182.265274 
M57.117218,186.060776 
	C57.030674,184.495865 56.944126,182.930969 56.857582,181.366058 
	C56.421352,181.132797 55.985126,180.899551 55.548897,180.666290 
	C54.356804,181.814880 52.237980,182.887253 52.136143,184.125519 
	C51.736473,188.985077 51.972618,193.896927 51.972618,198.789352 
	C52.602661,199.077042 53.232708,199.364731 53.862751,199.652420 
	C55.606544,197.638992 57.350334,195.625580 59.419361,193.236633 
	C59.977436,195.137054 60.371082,196.477554 61.176754,199.221130 
	C63.080559,197.582504 65.387894,196.557693 65.504730,195.325241 
	C65.948357,190.645630 65.683434,185.898849 65.683434,180.687759 
	C63.284836,180.974335 61.762432,181.156235 60.047897,181.361084 
	C60.047897,183.538849 60.377544,185.276230 59.973648,186.821930 
	C59.302349,189.390961 58.136383,189.222305 57.117218,186.060776 
M168.364822,193.048340 
	C166.775314,193.123398 165.185822,193.198441 163.596313,193.273483 
	C163.548553,192.991318 163.500778,192.709137 163.453003,192.426971 
	C165.566895,191.848892 167.680801,191.270828 171.052444,190.348801 
	C169.610001,188.846603 168.885498,187.505951 167.822144,187.134018 
	C166.512177,186.675812 164.919952,187.024567 163.449707,187.024567 
	C163.429031,186.587891 163.408356,186.151215 163.387680,185.714539 
	C165.539658,185.348282 167.691635,184.982025 170.072220,184.576859 
	C169.976593,183.160629 169.892868,181.920761 169.797653,180.510651 
	C166.683121,180.699600 163.864441,180.646027 161.146805,181.143936 
	C160.029938,181.348557 158.323914,182.691650 158.267883,183.601974 
	C157.977081,188.325958 158.132553,193.077408 158.132553,197.942017 
	C161.453949,197.942017 164.096085,198.067261 166.721344,197.910294 
	C169.993378,197.714630 171.322784,196.279800 168.364822,193.048340 
M28.899982,193.569199 
	C29.981556,192.831177 31.131615,192.174179 32.126354,191.333420 
	C33.225880,190.404099 34.183151,189.306442 35.202377,188.282104 
	C34.881550,187.918594 34.560722,187.555099 34.239895,187.191605 
	C32.244144,187.099792 30.248394,187.007965 28.252644,186.916153 
	C28.215967,186.518738 28.179291,186.121338 28.142614,185.723923 
	C30.261381,185.356735 32.380150,184.989532 34.621696,184.601074 
	C34.621696,183.242142 34.621696,181.887115 34.621696,180.548920 
	C31.450445,180.724777 28.598263,180.660889 25.843534,181.148041 
	C24.782837,181.335617 23.184835,182.732513 23.131273,183.653946 
	C22.856064,188.388565 23.003773,193.147797 23.003773,197.834793 
	C34.220905,198.470566 34.934093,198.172653 34.459122,192.944534 
	C32.851810,193.155136 31.257948,193.363968 28.899982,193.569199 
M16.537865,194.798447 
	C16.537865,191.687927 16.537865,188.577408 16.537865,185.130814 
	C20.727060,185.432709 22.083391,183.885620 20.505903,179.824631 
	C17.413479,180.153839 14.119162,180.288055 10.929010,180.935516 
	C9.334519,181.259109 7.930270,182.520081 6.439970,183.357086 
	C7.732193,184.619873 9.024415,185.882675 11.216793,188.025116 
	C11.216793,190.275726 11.216793,193.894775 11.216793,199.071487 
	C13.574437,197.527954 15.007554,196.589706 16.537865,194.798447 
M48.852821,181.079147 
	C47.039383,181.030655 44.702698,180.245972 43.520767,181.086014 
	C41.012363,182.868790 38.056774,185.185867 37.258362,187.870850 
	C36.518829,190.357803 37.454990,194.677246 39.300617,196.223877 
	C41.149620,197.773315 45.045212,197.069702 48.024025,196.930664 
	C48.660732,196.900925 49.212479,195.051193 49.803364,194.039917 
	C48.661701,193.403992 47.555653,192.689514 46.369442,192.151871 
	C44.858757,191.467178 42.192257,191.213638 41.942501,190.267685 
	C41.225845,187.553314 42.986881,186.440277 45.802490,185.810257 
	C47.314873,185.471848 48.343376,182.970932 48.852821,181.079147 
M113.992256,194.444473 
	C113.578529,189.259033 109.134422,194.050674 106.906349,190.874466 
	C106.906349,187.971481 106.906349,184.098114 106.906349,180.224731 
	C106.432693,179.964172 105.959030,179.703613 105.485374,179.443039 
	C104.351692,180.648148 102.346909,181.781158 102.240158,183.071243 
	C101.847511,187.816299 102.084343,192.613434 102.084343,198.549240 
	C106.521027,197.345581 110.236259,196.337662 113.992256,194.444473 
z"/>
<path fill="#020202" opacity="1.000000" stroke="none" 
	d="
M112.783775,169.287781 
	C105.886063,172.705246 99.158310,175.829147 92.063370,179.123535 
	C89.084953,168.024658 86.079262,157.062576 83.207275,146.065567 
	C78.992180,129.925751 75.000755,113.725922 70.598457,97.638023 
	C69.772255,94.618706 70.524506,93.549904 73.005035,92.342125 
	C81.612831,88.150932 90.079521,83.668404 98.710022,79.526184 
	C101.901489,77.994423 103.737419,76.243210 104.456947,72.410126 
	C106.771187,60.081543 109.702599,47.868816 112.469337,35.277599 
	C101.910591,35.277599 91.822205,35.277599 81.315018,35.277599 
	C78.302399,48.661873 74.737587,62.059769 72.467155,75.673538 
	C71.420341,81.950302 68.198143,85.331200 63.297604,87.974327 
	C60.292473,89.595161 59.365013,91.386223 60.900871,94.711258 
	C66.316452,106.435661 63.543900,118.113686 60.603161,129.869476 
	C57.997009,140.287735 55.942200,150.843918 53.567432,161.688843 
	C40.767910,161.688843 27.848764,161.688843 14.429959,161.688843 
	C16.788862,150.861145 19.137608,140.083374 21.484856,129.305267 
	C28.729067,96.041229 35.999233,62.782745 43.128448,29.494074 
	C43.443474,28.023132 42.918507,25.951483 42.021374,24.712385 
	C37.387955,18.312809 32.505554,12.093500 27.092215,5.002006 
	C29.091393,5.002006 30.167740,5.002017 31.244087,5.002004 
	C57.230324,5.001675 83.216858,5.058694 109.202385,4.922789 
	C112.189468,4.907166 114.047318,5.755674 115.787094,8.147710 
	C120.183044,14.191736 125.029579,19.913633 129.296341,26.042540 
	C130.533661,27.819878 131.253082,30.716278 130.804672,32.796822 
	C121.540855,75.779274 112.073189,118.717781 102.649033,161.665680 
	C102.196899,163.726181 101.773422,165.792969 101.323479,167.918808 
	C105.380753,168.293976 109.167244,168.644089 112.783775,169.287781 
z"/>
<path fill="#1B91C7" opacity="1.000000" stroke="none" 
	d="
M127.999924,162.687714 
	C121.525246,162.686005 115.550224,162.686005 108.704216,162.686005 
	C109.932915,156.596527 110.979866,150.993637 112.199753,145.428650 
	C120.608772,107.067566 129.089767,68.722145 137.371719,30.333731 
	C137.749008,28.584921 136.921661,26.124989 135.825134,24.588970 
	C131.494965,18.523252 126.833412,12.694098 121.863022,6.214314 
	C160.526047,6.214314 198.520798,6.214314 237.322495,6.214314 
	C236.096863,12.239528 234.934921,18.144960 233.687973,24.032389 
	C232.143250,31.325771 230.401703,38.580082 229.002502,45.900452 
	C228.402771,49.038116 227.151840,50.273457 223.784241,50.212410 
	C212.320450,50.004604 200.850586,50.132931 189.039490,50.132931 
	C190.011459,45.232670 190.875946,40.874363 191.827621,36.076401 
	C186.411560,36.076401 181.189224,36.076401 175.403183,36.076401 
	C173.173721,46.372368 170.909454,56.829029 168.527374,67.829758 
	C185.110870,67.829758 201.169373,67.829758 218.482025,67.829758 
	C216.652023,69.420242 215.799988,70.270905 214.841431,70.976913 
	C204.524307,78.575783 194.047028,85.967278 183.931396,93.824692 
	C179.867645,96.981262 175.800568,98.575829 170.719345,98.055359 
	C168.088181,97.785851 165.406662,98.007950 161.956223,98.007950 
	C157.212280,119.416908 152.467590,140.829269 147.623672,162.689407 
	C141.114456,162.689407 134.807022,162.689407 127.999924,162.687714 
z"/>
<path fill="#2B91BF" opacity="1.000000" stroke="none" 
	d="
M150.985901,192.042831 
	C149.647141,193.441086 148.504333,195.137131 146.927994,196.174316 
	C143.838791,198.206909 139.961655,199.205185 137.263626,196.430176 
	C135.369995,194.482529 134.139023,190.915070 134.301025,188.170639 
	C134.550552,183.943329 137.519485,180.793686 141.913544,180.103638 
	C144.141785,179.753708 146.551392,180.558853 148.707474,181.266937 
	C150.279327,183.329529 143.430481,185.769730 149.884644,187.187134 
	C150.657196,188.928101 150.821548,190.485458 150.985901,192.042831 
z"/>
<path fill="#2A93C3" opacity="1.000000" stroke="none" 
	d="
M129.619904,194.493317 
	C125.784401,197.969330 121.765610,199.362732 117.862061,195.837326 
	C114.468315,192.772324 115.050804,188.651596 116.756050,184.830307 
	C118.492523,180.939026 123.311584,178.808289 127.652214,180.044754 
	C131.809921,181.229126 132.665405,184.593170 132.082642,188.292282 
	C131.761993,190.327637 130.633987,192.235809 129.619904,194.493317 
M122.559059,191.969818 
	C125.699974,192.183899 127.307167,190.564270 126.801193,187.606842 
	C126.665771,186.815292 124.230003,185.597000 123.306458,185.912003 
	C120.350533,186.920288 119.933067,189.127579 122.559059,191.969818 
z"/>
<path fill="#2892C2" opacity="1.000000" stroke="none" 
	d="
M87.144409,182.027374 
	C92.546448,179.108673 97.026825,179.149475 99.151649,182.186386 
	C101.907616,186.125336 100.964622,190.223572 98.394569,193.692184 
	C95.917580,197.035217 92.487679,199.051056 88.043350,197.045456 
	C82.864540,194.708435 82.359009,188.474060 87.144409,182.027374 
M90.001205,191.644821 
	C93.079933,192.749176 94.961716,191.526474 95.119896,188.429749 
	C95.168983,187.468796 93.565193,185.548248 92.768150,185.574692 
	C89.740463,185.675171 88.422073,187.546616 89.212914,190.625839 
	C89.253296,190.783066 89.348747,190.926147 90.001205,191.644821 
z"/>
<path fill="#2F93C1" opacity="1.000000" stroke="none" 
	d="
M57.132820,186.464233 
	C58.136383,189.222305 59.302349,189.390961 59.973648,186.821930 
	C60.377544,185.276230 60.047897,183.538849 60.047897,181.361084 
	C61.762432,181.156235 63.284836,180.974335 65.683434,180.687759 
	C65.683434,185.898849 65.948357,190.645630 65.504730,195.325241 
	C65.387894,196.557693 63.080559,197.582504 61.176754,199.221130 
	C60.371082,196.477554 59.977436,195.137054 59.419361,193.236633 
	C57.350334,195.625580 55.606544,197.638992 53.862751,199.652420 
	C53.232708,199.364731 52.602661,199.077042 51.972618,198.789352 
	C51.972618,193.896927 51.736473,188.985077 52.136143,184.125519 
	C52.237980,182.887253 54.356804,181.814880 55.548897,180.666290 
	C55.985126,180.899551 56.421352,181.132797 56.857582,181.366058 
	C56.944126,182.930969 57.030674,184.495865 57.132820,186.464233 
z"/>
<path fill="#1F8FC4" opacity="1.000000" stroke="none" 
	d="
M78.079315,180.700317 
	C78.495644,180.591110 78.911972,180.481903 79.743164,180.830048 
	C80.458969,186.550491 80.759903,191.813583 81.060837,197.076675 
	C81.060837,197.076675 80.996315,197.009735 80.641838,197.008209 
	C79.499908,197.021835 78.712456,197.036972 77.925003,197.052124 
	C77.925003,197.052124 78.002907,197.017242 77.966110,196.726501 
	C77.522079,196.012222 77.114845,195.588654 76.707611,195.165085 
	C76.707619,195.165085 76.835045,195.119446 76.777725,194.907120 
	C76.424477,194.480835 76.128540,194.266876 75.832611,194.052917 
	C75.499214,193.976791 75.259399,193.784180 75.028534,192.917816 
	C74.503334,191.951172 74.062759,191.541809 73.622177,191.132446 
	C72.832619,193.143829 72.043076,195.155228 71.013145,197.778992 
	C70.411774,197.819519 69.008469,197.914078 67.283112,198.030334 
	C67.283112,192.321991 67.283112,186.929962 67.283112,181.575974 
	C70.887360,179.215302 72.888794,181.131561 74.657158,184.145630 
	C75.066788,184.843811 76.188538,185.124191 77.293945,185.056854 
	C77.763298,183.244705 77.921303,181.972504 78.079315,180.700317 
z"/>
<path fill="#2E91BE" opacity="1.000000" stroke="none" 
	d="
M168.793671,193.100464 
	C171.322784,196.279800 169.993378,197.714630 166.721344,197.910294 
	C164.096085,198.067261 161.453949,197.942017 158.132553,197.942017 
	C158.132553,193.077408 157.977081,188.325958 158.267883,183.601974 
	C158.323914,182.691650 160.029938,181.348557 161.146805,181.143936 
	C163.864441,180.646027 166.683121,180.699600 169.797653,180.510651 
	C169.892868,181.920761 169.976593,183.160629 170.072220,184.576859 
	C167.691635,184.982025 165.539658,185.348282 163.387680,185.714539 
	C163.408356,186.151215 163.429031,186.587891 163.449707,187.024567 
	C164.919952,187.024567 166.512177,186.675812 167.822144,187.134018 
	C168.885498,187.505951 169.610001,188.846603 171.052444,190.348801 
	C167.680801,191.270828 165.566895,191.848892 163.453003,192.426971 
	C163.500778,192.709137 163.548553,192.991318 163.596313,193.273483 
	C165.185822,193.198441 166.775314,193.123398 168.793671,193.100464 
z"/>
<path fill="#2991BF" opacity="1.000000" stroke="none" 
	d="
M29.282032,193.570999 
	C31.257948,193.363968 32.851810,193.155136 34.459122,192.944534 
	C34.934093,198.172653 34.220905,198.470566 23.003773,197.834793 
	C23.003773,193.147797 22.856064,188.388565 23.131273,183.653946 
	C23.184835,182.732513 24.782837,181.335617 25.843534,181.148041 
	C28.598263,180.660889 31.450445,180.724777 34.621696,180.548920 
	C34.621696,181.887115 34.621696,183.242142 34.621696,184.601074 
	C32.380150,184.989532 30.261381,185.356735 28.142614,185.723923 
	C28.179291,186.121338 28.215967,186.518738 28.252644,186.916153 
	C30.248394,187.007965 32.244144,187.099792 34.239895,187.191605 
	C34.560722,187.555099 34.881550,187.918594 35.202377,188.282104 
	C34.183151,189.306442 33.225880,190.404099 32.126354,191.333420 
	C31.131615,192.174179 29.981556,192.831177 29.282032,193.570999 
z"/>
<path fill="#2892C1" opacity="1.000000" stroke="none" 
	d="
M16.489267,195.224960 
	C15.007554,196.589706 13.574437,197.527954 11.216793,199.071487 
	C11.216793,193.894775 11.216793,190.275726 11.216793,188.025116 
	C9.024415,185.882675 7.732193,184.619873 6.439972,183.357086 
	C7.930270,182.520081 9.334519,181.259109 10.929010,180.935516 
	C14.119162,180.288055 17.413479,180.153839 20.505903,179.824631 
	C22.083391,183.885620 20.727060,185.432709 16.537865,185.130814 
	C16.537865,188.577408 16.537865,191.687927 16.489267,195.224960 
z"/>
<path fill="#2890BF" opacity="1.000000" stroke="none" 
	d="
M49.221523,181.262482 
	C48.343376,182.970932 47.314873,185.471848 45.802490,185.810257 
	C42.986881,186.440277 41.225845,187.553314 41.942501,190.267685 
	C42.192257,191.213638 44.858757,191.467178 46.369442,192.151871 
	C47.555653,192.689514 48.661701,193.403992 49.803364,194.039917 
	C49.212479,195.051193 48.660732,196.900925 48.024025,196.930664 
	C45.045212,197.069702 41.149620,197.773315 39.300617,196.223877 
	C37.454990,194.677246 36.518829,190.357803 37.258362,187.870850 
	C38.056774,185.185867 41.012363,182.868790 43.520767,181.086014 
	C44.702698,180.245972 47.039383,181.030655 49.221523,181.262482 
z"/>
<path fill="#39CAF4" opacity="1.000000" stroke="none" 
	d="
M228.274857,177.860077 
	C228.569275,177.966553 228.782074,178.161911 229.052673,178.904175 
	C229.450562,179.577591 229.709045,179.792999 229.967529,180.008408 
	C229.967529,180.008408 230.005188,180.004456 230.011108,180.318817 
	C230.370682,181.075974 230.724335,181.518753 231.077988,181.961533 
	C231.077988,181.961533 231.002213,181.994003 231.026855,182.274872 
	C231.393555,183.025955 231.735626,183.496170 232.077698,183.966385 
	C232.077698,183.966385 232.003647,183.993347 232.009644,184.312012 
	C232.376892,185.408600 232.738144,186.186523 233.099396,186.964432 
	C233.099396,186.964432 233.015244,186.990433 233.010025,187.371643 
	C233.446503,189.851105 233.888199,191.949356 234.329910,194.047592 
	C234.382217,194.569244 234.434525,195.090912 234.006439,196.049118 
	C233.419388,198.028610 233.312744,199.571533 233.206085,201.114471 
	C233.206085,201.114471 233.289536,201.227081 232.998260,201.104553 
	C232.162537,200.654190 231.618103,200.326340 231.073669,199.998489 
	C231.073669,199.998489 230.922470,199.610901 230.945572,199.038025 
	C230.557297,197.695557 230.145935,196.925949 229.734558,196.156357 
	C229.734558,196.156357 229.848892,196.073715 229.801147,195.883865 
	C229.517227,195.461685 229.281036,195.229355 229.044846,194.997025 
	C229.044846,194.997025 228.866318,194.719040 228.823929,194.264175 
	C228.518173,193.541702 228.254807,193.274094 227.991440,193.006485 
	C227.991440,193.006485 228.000000,193.000000 227.983887,192.696259 
	C227.593948,191.954956 227.220123,191.517380 226.846313,191.079803 
	C226.846313,191.079803 226.935211,191.041702 226.857758,190.839264 
	C226.523376,190.424637 226.266449,190.212448 226.009537,190.000259 
	C226.009537,190.000259 225.998779,190.000061 225.982605,189.688354 
	C225.575577,188.964417 225.184738,188.552185 224.793900,188.139954 
	C224.793900,188.139954 224.888885,188.030853 224.813690,187.839722 
	C224.451187,187.463654 224.163849,187.278732 223.876526,187.093811 
	C223.876526,187.093811 223.916702,187.032379 223.844986,186.819427 
	C223.501694,186.409637 223.230133,186.212784 222.958557,186.015930 
	C222.958557,186.015930 223.001358,185.998779 222.888077,185.791138 
	C222.502243,185.397369 222.229691,185.211243 221.957138,185.025131 
	C221.957138,185.025131 222.003586,185.009872 221.994202,184.652100 
	C220.998260,179.071838 221.544510,178.386597 227.326706,177.972366 
	C227.854691,177.921799 228.064774,177.890945 228.274857,177.860077 
z"/>
<path fill="#228FC2" opacity="1.000000" stroke="none" 
	d="
M176.014511,181.077942 
	C177.973633,181.218048 179.932755,181.358154 183.039459,181.580338 
	C180.026260,183.687653 178.237701,184.938507 176.449127,186.189362 
	C176.585358,186.634155 176.721588,187.078949 176.857803,187.523743 
	C180.965729,188.141525 185.937408,187.947067 184.326859,194.301300 
	C183.429077,197.843445 179.110657,199.483047 174.274963,197.815735 
	C173.201675,197.445663 172.690994,195.443863 171.289459,193.166931 
	C175.318634,193.166931 177.560669,193.166931 179.802719,193.166931 
	C179.822601,192.841843 179.842499,192.516754 179.862381,192.191666 
	C178.455307,191.922531 177.048248,191.653412 175.177307,190.966278 
	C174.216766,190.352402 173.720123,190.156525 173.223480,189.960632 
	C173.223480,189.960632 172.935059,189.762665 172.927704,189.120819 
	C172.908615,186.899155 172.896896,185.319351 172.885162,183.739532 
	C173.287094,183.163956 173.689041,182.588394 174.635406,181.906921 
	C175.458054,181.559998 175.736282,181.318970 176.014511,181.077942 
z"/>
<path fill="#32BEE7" opacity="1.000000" stroke="none" 
	d="
M227.008804,177.992065 
	C221.544510,178.386597 220.998260,179.071838 221.973557,184.666977 
	C219.777176,183.165939 217.592072,181.292252 215.206924,178.778900 
	C213.329971,174.453888 209.771545,170.531906 216.297287,167.878067 
	C219.403076,170.107346 222.508865,172.336624 225.884003,175.048248 
	C226.324875,175.778305 226.552124,175.953934 226.835083,176.057480 
	C226.835083,176.057480 226.934494,176.067429 226.933090,176.420227 
	C226.957397,177.179367 226.983093,177.585724 227.008804,177.992065 
z"/>
<path fill="#2E91BD" opacity="1.000000" stroke="none" 
	d="
M113.971870,194.887100 
	C110.236259,196.337662 106.521027,197.345581 102.084343,198.549240 
	C102.084343,192.613434 101.847511,187.816299 102.240158,183.071243 
	C102.346909,181.781158 104.351692,180.648148 105.485374,179.443039 
	C105.959030,179.703613 106.432693,179.964172 106.906349,180.224731 
	C106.906349,184.098114 106.906349,187.971481 106.906349,190.874466 
	C109.134422,194.050674 113.578529,189.259033 113.971870,194.887100 
z"/>
<path fill="#45CEF1" opacity="1.000000" stroke="none" 
	d="
M234.229355,167.926468 
	C239.823273,175.226089 239.837387,183.351837 238.122864,191.423401 
	C235.481827,186.355591 232.772842,181.157410 230.087158,175.309784 
	C230.697769,171.935165 229.027924,167.829346 234.229355,167.926468 
z"/>
<path fill="#32B0DB" opacity="1.000000" stroke="none" 
	d="
M216.085648,167.592560 
	C209.771545,170.531906 213.329971,174.453888 215.026703,178.501022 
	C210.180237,175.751526 205.313950,172.640274 200.535553,169.110031 
	C202.411957,166.478699 204.200455,164.266327 205.988953,162.053955 
	C209.283981,163.805008 212.578995,165.556030 216.085648,167.592560 
z"/>
<path fill="#3599C7" opacity="1.000000" stroke="none" 
	d="
M150.975830,192.469376 
	C150.821548,190.485458 150.657196,188.928101 150.267776,187.186813 
	C150.441910,186.123917 151.218887,185.225647 151.175171,184.369278 
	C150.982269,180.592438 152.965027,179.795639 156.916595,180.449219 
	C156.916595,185.398026 157.200272,190.481903 156.699844,195.487381 
	C156.586960,196.616501 153.742172,197.472473 151.267273,199.003220 
	C151.122864,196.077850 151.044327,194.486893 150.975830,192.469376 
z"/>
<path fill="#B7B7B8" opacity="1.000000" stroke="none" 
	d="
M196.053207,130.568680 
	C193.497665,131.934113 190.997314,134.202698 188.368118,134.363403 
	C186.455154,134.480316 184.372025,131.813080 181.180450,129.545807 
	C187.015564,126.617477 191.213028,124.510994 195.730408,122.802246 
	C196.051285,125.656212 196.052246,128.112442 196.053207,130.568680 
z"/>
<path fill="#1D93C6" opacity="1.000000" stroke="none" 
	d="
M196.011475,153.864456 
	C193.215179,152.293304 190.418900,150.722168 187.310257,148.597824 
	C188.059570,145.578400 189.121216,143.112183 190.182892,140.645966 
	C193.024918,141.887527 195.866943,143.129105 198.623566,144.887512 
	C197.695923,148.224380 196.853699,151.044418 196.011475,153.864456 
z"/>
<path fill="#3DC3EA" opacity="1.000000" stroke="none" 
	d="
M234.088348,167.607178 
	C229.027924,167.829346 230.697769,171.935165 229.987671,174.989792 
	C227.347504,173.075699 224.830078,170.832153 222.540985,168.294220 
	C224.122696,167.833557 225.476089,167.667297 226.465576,167.545731 
	C224.825455,163.487106 223.396255,159.950409 221.967041,156.413696 
	C225.960480,160.038422 229.953903,163.663162 234.088348,167.607178 
z"/>
<path fill="#2BA9D6" opacity="1.000000" stroke="none" 
	d="
M205.392700,147.847748 
	C207.713654,148.866333 210.034607,149.884918 212.481216,151.398651 
	C210.989578,154.670395 209.591003,157.404129 214.107697,159.220734 
	C214.416199,159.716904 214.677994,159.907959 214.878189,160.298935 
	C214.506668,161.355133 214.257980,162.127502 214.009293,162.899872 
	C211.155243,161.450272 208.301208,160.000656 205.080490,157.939728 
	C204.940125,154.168167 205.166412,151.007965 205.392700,147.847748 
z"/>
<path fill="#747474" opacity="1.000000" stroke="none" 
	d="
M215.062790,98.622696 
	C218.631485,94.849716 222.200180,91.076736 225.771835,87.300629 
	C228.007874,94.565163 223.694748,99.786064 217.977173,104.808350 
	C217.067093,103.952484 216.870331,102.998207 216.536880,102.094353 
	C216.102234,100.916214 215.559189,99.778061 215.062790,98.622696 
z"/>
<path fill="#1B7AAC" opacity="1.000000" stroke="none" 
	d="
M172.952927,152.047348 
	C166.588608,146.661865 164.965317,140.559570 168.243698,133.952927 
	C170.858276,137.433029 173.435303,140.863144 175.761169,144.631653 
	C170.853073,145.954514 173.936661,149.735718 172.952927,152.047348 
z"/>
<path fill="#1D8FC3" opacity="1.000000" stroke="none" 
	d="
M183.124100,149.952805 
	C184.641449,150.769791 186.158813,151.586777 187.979004,153.007034 
	C189.229950,155.371933 190.178085,157.133575 191.068375,158.787750 
	C189.332596,159.946793 188.071732,160.788712 186.810883,161.630630 
	C185.000504,160.611206 183.190140,159.591797 181.061737,158.062973 
	C180.439102,157.399307 180.134491,157.245026 179.829865,157.090759 
	C179.829865,157.090759 179.925537,157.110809 179.924622,156.832336 
	C179.617096,156.034363 179.310455,155.514877 179.196320,154.723785 
	C180.633896,152.952393 181.878998,151.452591 183.124100,149.952805 
z"/>
<path fill="#717171" opacity="1.000000" stroke="none" 
	d="
M222.222076,105.080551 
	C224.476395,101.696564 226.730728,98.312569 228.907761,95.044571 
	C231.955521,100.351791 229.768097,107.591980 223.266174,112.733757 
	C222.593048,110.006874 222.407562,107.543709 222.222076,105.080551 
z"/>
<path fill="#2BBCE8" opacity="1.000000" stroke="none" 
	d="
M221.721527,156.206543 
	C223.396255,159.950409 224.825455,163.487106 226.465576,167.545731 
	C225.476089,167.667297 224.122696,167.833557 222.364685,168.012360 
	C221.623932,168.018494 221.343140,167.890564 220.998505,167.055878 
	C219.886490,166.005707 218.893707,165.540787 217.900925,165.075867 
	C217.900925,165.075867 217.999237,165.042542 217.951935,164.699524 
	C216.111542,160.906311 214.338272,157.458832 219.207214,154.929108 
	C219.963470,155.285858 220.719742,155.642624 221.721527,156.206543 
z"/>
<path fill="#117BB4" opacity="1.000000" stroke="none" 
	d="
M173.997635,127.985298 
	C176.255569,130.410507 178.513504,132.835724 180.873749,135.910889 
	C180.627121,139.064865 180.278183,141.568878 179.929245,144.072891 
	C178.353378,142.632233 176.777496,141.191589 175.012421,139.199478 
	C174.564026,138.422852 174.304825,138.197662 174.045624,137.972488 
	C173.715683,137.551102 173.385742,137.129730 173.006378,136.112885 
	C172.622086,134.995682 172.287201,134.473969 171.952316,133.952240 
	C171.952316,133.952240 171.772873,133.809937 171.842834,133.271301 
	C173.144958,131.386139 169.518692,127.905983 173.997635,127.985298 
z"/>
<path fill="#239ECE" opacity="1.000000" stroke="none" 
	d="
M205.160339,147.577637 
	C205.166412,151.007965 204.940125,154.168167 204.867218,157.670486 
	C202.209595,156.767868 199.398560,155.523148 196.299500,154.071442 
	C196.853699,151.044418 197.695923,148.224380 198.832443,145.170578 
	C201.060471,145.727051 202.994217,146.517288 205.160339,147.577637 
z"/>
<path fill="#2C9ACA" opacity="1.000000" stroke="none" 
	d="
M187.048370,161.839691 
	C188.071732,160.788712 189.332596,159.946793 191.068375,158.787750 
	C190.178085,157.133575 189.229950,155.371933 188.152634,153.281250 
	C191.671188,154.724762 195.318924,156.497330 198.777557,158.592957 
	C195.089203,159.168518 192.124847,159.641556 195.807388,163.957535 
	C196.480072,164.745941 196.543777,166.053986 196.888596,167.122147 
	C193.687683,165.431015 190.486755,163.739883 187.048370,161.839691 
z"/>
<path fill="#26A4D5" opacity="1.000000" stroke="none" 
	d="
M196.912842,167.099457 
	C196.543777,166.053986 196.480072,164.745941 195.807388,163.957535 
	C192.124847,159.641556 195.089203,159.168518 199.010986,158.860718 
	C199.433563,158.805450 199.755371,158.816147 199.940399,159.281738 
	C201.408401,160.168945 202.691391,160.590561 203.974365,161.012177 
	C204.527359,161.199173 205.080353,161.386154 205.811157,161.813553 
	C204.200455,164.266327 202.411957,166.478699 200.327301,168.843704 
	C199.500580,168.753510 198.969971,168.510666 198.084366,167.867981 
	C197.493500,167.228638 197.208313,167.092163 196.873825,167.058701 
	C196.873825,167.058701 196.937088,167.076782 196.912842,167.099457 
z"/>
<path fill="#1C87BC" opacity="1.000000" stroke="none" 
	d="
M179.949539,144.054779 
	C180.278183,141.568878 180.627121,139.064865 181.015244,136.214508 
	C183.941284,137.301544 186.828125,138.734940 189.948929,140.407135 
	C189.121216,143.112183 188.059570,145.578400 186.994629,148.449371 
	C185.116333,147.734253 183.241318,146.614365 181.052872,145.010239 
	C180.515778,144.277695 180.241516,144.114304 179.916641,144.035812 
	C179.916641,144.035812 179.969833,144.036682 179.949539,144.054779 
z"/>
<path fill="#9F9F9F" opacity="1.000000" stroke="none" 
	d="
M196.430191,130.491135 
	C196.052246,128.112442 196.051285,125.656212 196.073883,122.764389 
	C198.512222,120.968781 200.927017,119.608772 203.675598,118.633041 
	C204.008316,121.665009 204.007263,124.312675 204.006210,126.960342 
	C201.606522,128.111420 199.206848,129.262512 196.430191,130.491135 
z"/>
<path fill="#1A82B9" opacity="1.000000" stroke="none" 
	d="
M182.963226,149.658936 
	C181.878998,151.452591 180.633896,152.952393 178.820282,154.856293 
	C178.038895,155.419556 177.826050,155.578705 177.613220,155.737839 
	C177.613220,155.737839 177.556854,155.620102 177.566833,155.234085 
	C176.975296,154.628021 176.373779,154.407990 175.772247,154.187943 
	C175.772247,154.187943 175.895569,154.161957 175.871109,153.839813 
	C174.882553,153.025162 173.918442,152.532654 172.954346,152.040161 
	C172.954346,152.040161 172.976746,152.017960 172.964844,152.032654 
	C173.936661,149.735718 170.853073,145.954514 175.939301,144.931763 
	C178.513168,146.384003 180.657761,147.874527 182.963226,149.658936 
z"/>
<path fill="#8B8B8B" opacity="1.000000" stroke="none" 
	d="
M212.988556,108.994431 
	C210.245865,110.697510 207.503174,112.400589 204.397705,113.808533 
	C204.218933,110.767189 204.402939,108.021004 204.586945,105.274811 
	C206.175369,104.226776 207.763809,103.178741 209.680878,102.437241 
	C211.002533,104.827332 211.995544,106.910873 212.988556,108.994431 
z"/>
<path fill="#7B7B7B" opacity="1.000000" stroke="none" 
	d="
M221.915497,105.206306 
	C222.407562,107.543709 222.593048,110.006874 222.913849,112.801270 
	C221.646667,114.737938 220.244141,116.343369 218.240540,117.839493 
	C217.405884,115.105499 217.172287,112.480812 216.938690,109.856110 
	C218.495438,108.348099 220.052185,106.840080 221.915497,105.206306 
z"/>
<path fill="#818181" opacity="1.000000" stroke="none" 
	d="
M213.301422,108.898911 
	C211.995544,106.910873 211.002533,104.827332 210.003998,102.369415 
	C211.505035,100.937523 213.011581,99.880005 214.790451,98.722588 
	C215.559189,99.778061 216.102234,100.916214 216.536880,102.094353 
	C216.870331,102.998207 217.067093,103.952484 217.658234,104.940338 
	C216.532639,106.265366 215.073456,107.534386 213.301422,108.898911 
z"/>
<path fill="#B3B4B3" opacity="1.000000" stroke="none" 
	d="
M193.031982,120.068314 
	C191.908691,120.692863 190.785400,121.317406 189.103210,121.705460 
	C185.368073,121.044334 183.289764,119.497437 183.038696,116.082794 
	C185.105255,115.057297 187.171799,114.031792 189.607178,113.321968 
	C190.994644,115.781204 192.013321,117.924759 193.031982,120.068314 
z"/>
<path fill="#A1A1A1" opacity="1.000000" stroke="none" 
	d="
M201.019272,116.048050 
	C199.246262,117.020004 197.473267,117.991974 195.352570,118.560623 
	C195.009094,115.485886 195.013336,112.814468 195.017578,110.143044 
	C196.419357,109.405388 197.821152,108.667732 199.707794,108.213272 
	C200.468216,111.013657 200.743744,113.530853 201.019272,116.048050 
z"/>
<path fill="#31B2DF" opacity="1.000000" stroke="none" 
	d="
M219.020569,154.646606 
	C214.338272,157.458832 216.111542,160.906311 217.915054,164.736053 
	C216.783615,164.521622 215.641739,163.927643 214.254578,163.116760 
	C214.257980,162.127502 214.506668,161.355133 214.770981,160.076752 
	C214.586670,159.294434 214.324387,159.104019 213.999741,158.999527 
	C209.591003,157.404129 210.989578,154.670395 212.770111,151.597839 
	C214.900192,152.322647 216.867050,153.343384 219.020569,154.646606 
z"/>
<path fill="#959595" opacity="1.000000" stroke="none" 
	d="
M204.341675,126.890289 
	C204.007263,124.312675 204.008316,121.665009 204.014130,118.579926 
	C205.474472,117.190720 206.930038,116.238922 208.698425,115.663010 
	C209.600540,118.253357 210.189850,120.467842 210.779160,122.682312 
	C208.745148,124.061623 206.711136,125.440926 204.341675,126.890289 
z"/>
<path fill="#C2BFC1" opacity="1.000000" stroke="none" 
	d="
M182.705841,116.087814 
	C183.289764,119.497437 185.368073,121.044334 188.773438,121.739532 
	C186.939423,123.005974 184.876282,124.001846 182.181610,124.829559 
	C180.699661,122.439735 179.849258,120.218071 178.998840,117.996414 
	C180.123566,117.361893 181.248291,116.727371 182.705841,116.087814 
z"/>
<path fill="#858585" opacity="1.000000" stroke="none" 
	d="
M216.632996,109.931564 
	C217.172287,112.480812 217.405884,115.105499 217.928375,117.935043 
	C217.431839,118.761993 216.646393,119.384094 215.176025,120.020973 
	C213.855621,119.162292 212.825241,118.351418 212.674637,117.401108 
	C212.431885,115.869179 212.769043,114.245354 212.861237,112.660347 
	C214.016602,111.775902 215.171951,110.891449 216.632996,109.931564 
z"/>
<path fill="#949494" opacity="1.000000" stroke="none" 
	d="
M201.318817,115.996613 
	C200.743744,113.530853 200.468216,111.013657 200.046722,108.165085 
	C201.249054,107.043747 202.597321,106.253769 204.266266,105.369308 
	C204.402939,108.021004 204.218933,110.767189 204.050873,113.904221 
	C203.250656,114.845100 202.434509,115.395142 201.318817,115.996613 
z"/>
<path fill="#A9A8A9" opacity="1.000000" stroke="none" 
	d="
M194.697662,110.209854 
	C195.013336,112.814468 195.009094,115.485886 195.007828,118.609146 
	C194.543976,119.368149 194.077133,119.675323 193.321152,120.025406 
	C192.013321,117.924759 190.994644,115.781204 189.955811,113.239929 
	C191.416336,111.987022 192.897034,111.131844 194.697662,110.209854 
z"/>
<path fill="#8A8A8A" opacity="1.000000" stroke="none" 
	d="
M212.545959,112.759262 
	C212.769043,114.245354 212.431885,115.869179 212.674637,117.401108 
	C212.825241,118.351418 213.855621,119.162292 214.872284,120.070755 
	C213.971344,120.967262 212.689209,121.828766 211.093109,122.686295 
	C210.189850,120.467842 209.600540,118.253357 209.016525,115.604279 
	C210.091446,114.399170 211.161087,113.628677 212.545959,112.759262 
z"/>
<path fill="#C9CDCC" opacity="1.000000" stroke="none" 
	d="
M178.631546,118.039276 
	C179.849258,120.218071 180.699661,122.439735 181.829620,124.888947 
	C180.378494,124.670975 178.035797,124.766190 177.056061,123.657257 
	C175.460129,121.850838 175.093033,119.337830 178.631546,118.039276 
z"/>
<path fill="#3291BB" opacity="1.000000" stroke="none" 
	d="
M81.434723,196.849274 
	C80.759903,191.813583 80.458969,186.550491 80.059265,180.919434 
	C80.677002,181.311218 81.994431,182.057892 82.011261,182.832825 
	C82.110939,187.425537 81.909081,192.024811 81.434723,196.849274 
z"/>
<path fill="#2E78A5" opacity="1.000000" stroke="none" 
	d="
M174.046570,127.615051 
	C169.518692,127.905983 173.144958,131.386139 171.870972,133.160309 
	C171.538376,130.010712 171.247620,126.433479 170.956848,122.856255 
	C171.466476,122.785759 171.976105,122.715263 172.485733,122.644768 
	C173.022324,124.178108 173.558899,125.711456 174.046570,127.615051 
z"/>
<path fill="#55D0EC" opacity="1.000000" stroke="none" 
	d="
M234.480331,193.693573 
	C233.888199,191.949356 233.446503,189.851105 233.038361,187.337921 
	C233.591522,189.061844 234.111130,191.200699 234.480331,193.693573 
z"/>
<path fill="#2C9ACA" opacity="1.000000" stroke="none" 
	d="
M203.788452,160.743530 
	C202.691391,160.590561 201.408401,160.168945 200.056107,159.393677 
	C201.192032,159.518326 202.397293,159.996613 203.788452,160.743530 
z"/>
<path fill="#3D99BE" opacity="1.000000" stroke="none" 
	d="
M172.575165,183.981491 
	C172.896896,185.319351 172.908615,186.899155 172.872681,188.954803 
	C172.638412,187.694901 172.451782,185.959167 172.575165,183.981491 
z"/>
<path fill="#1B7AAC" opacity="1.000000" stroke="none" 
	d="
M173.088593,152.322433 
	C173.918442,152.532654 174.882553,153.025162 175.832047,153.889252 
	C174.952576,153.708801 174.087708,153.156754 173.088593,152.322433 
z"/>
<path fill="#55D0EC" opacity="1.000000" stroke="none" 
	d="
M231.037170,200.341766 
	C231.618103,200.326340 232.162537,200.654190 232.973083,201.169952 
	C232.935867,201.832977 232.632538,202.308075 232.329208,202.783188 
	C231.886368,202.083801 231.443512,201.384415 231.037170,200.341766 
z"/>
<path fill="#3291BB" opacity="1.000000" stroke="none" 
	d="
M77.738152,180.744156 
	C77.921303,181.972504 77.763298,183.244705 77.375404,184.742966 
	C77.229340,183.575348 77.313171,182.181686 77.738152,180.744156 
z"/>
<path fill="#55D0EC" opacity="1.000000" stroke="none" 
	d="
M233.479233,200.855377 
	C233.312744,199.571533 233.419388,198.028610 233.844147,196.266541 
	C234.025620,197.563705 233.889008,199.079987 233.479233,200.855377 
z"/>
<path fill="#31B2DF" opacity="1.000000" stroke="none" 
	d="
M218.039429,165.369720 
	C218.893707,165.540787 219.886490,166.005707 220.902603,166.839462 
	C220.009933,166.693375 219.093933,166.178467 218.039429,165.369720 
z"/>
<path fill="#1B7AAC" opacity="1.000000" stroke="none" 
	d="
M177.764160,155.968811 
	C177.826050,155.578705 178.038895,155.419556 178.627792,155.127899 
	C179.310455,155.514877 179.617096,156.034363 179.898743,156.873779 
	C179.220886,156.862396 178.567993,156.531082 177.764160,155.968811 
z"/>
<path fill="#55D0EC" opacity="1.000000" stroke="none" 
	d="
M229.758636,196.492645 
	C230.145935,196.925949 230.557297,197.695557 230.931992,198.830444 
	C230.524445,198.406815 230.153580,197.617859 229.758636,196.492645 
z"/>
<path fill="#55D0EC" opacity="1.000000" stroke="none" 
	d="
M233.108704,186.625504 
	C232.738144,186.186523 232.376892,185.408600 232.036591,184.283279 
	C232.411041,184.719437 232.764526,185.503006 233.108704,186.625504 
z"/>
<path fill="#3291BB" opacity="1.000000" stroke="none" 
	d="
M78.063217,197.352676 
	C78.712456,197.036972 79.499908,197.021835 80.680511,197.033585 
	C80.116241,197.258072 79.158836,197.455658 78.063217,197.352676 
z"/>
<path fill="#2E78A5" opacity="1.000000" stroke="none" 
	d="
M171.953369,134.281158 
	C172.287201,134.473969 172.622086,134.995682 172.954971,135.844543 
	C172.620132,135.651138 172.287277,135.130600 171.953369,134.281158 
z"/>
<path fill="#3291BB" opacity="1.000000" stroke="none" 
	d="
M76.761360,195.463074 
	C77.114845,195.588654 77.522079,196.012222 77.937431,196.758148 
	C77.568733,196.640686 77.191917,196.200882 76.761360,195.463074 
z"/>
<path fill="#55D0EC" opacity="1.000000" stroke="none" 
	d="
M226.887299,191.373657 
	C227.220123,191.517380 227.593948,191.954956 227.979675,192.699829 
	C227.637146,192.560608 227.282715,192.114059 226.887299,191.373657 
z"/>
<path fill="#3291BB" opacity="1.000000" stroke="none" 
	d="
M73.723900,191.418091 
	C74.062759,191.541809 74.503334,191.951172 74.973282,192.686920 
	C74.610313,192.576752 74.217964,192.140244 73.723900,191.418091 
z"/>
<path fill="#3D99BE" opacity="1.000000" stroke="none" 
	d="
M173.317780,190.232803 
	C173.720123,190.156525 174.216766,190.352402 174.855255,190.783295 
	C174.468750,190.847183 173.940414,190.676071 173.317780,190.232803 
z"/>
<path fill="#55D0EC" opacity="1.000000" stroke="none" 
	d="
M224.830750,188.430771 
	C225.184738,188.552185 225.575577,188.964417 225.984589,189.683029 
	C225.624374,189.566803 225.245987,189.144196 224.830750,188.430771 
z"/>
<path fill="#55D0EC" opacity="1.000000" stroke="none" 
	d="
M232.063751,183.662277 
	C231.735626,183.496170 231.393555,183.025955 231.056396,182.246094 
	C231.390793,182.410355 231.720306,182.884262 232.063751,183.662277 
z"/>
<path fill="#55D0EC" opacity="1.000000" stroke="none" 
	d="
M231.047241,181.668732 
	C230.724335,181.518753 230.370682,181.075974 229.999390,180.333771 
	C230.326645,180.481537 230.671570,180.928726 231.047241,181.668732 
z"/>
<path fill="#55D0EC" opacity="1.000000" stroke="none" 
	d="
M227.326706,177.972366 
	C226.983093,177.585724 226.957397,177.179367 226.919373,176.468262 
	C227.306595,176.545380 227.706131,176.927277 228.190277,177.584625 
	C228.064774,177.890945 227.854691,177.921799 227.326706,177.972366 
z"/>
<path fill="#1B7AAC" opacity="1.000000" stroke="none" 
	d="
M175.896515,154.447205 
	C176.373779,154.407990 176.975296,154.628021 177.513199,155.196899 
	C176.973297,155.265976 176.497040,154.986221 175.896515,154.447205 
z"/>
<path fill="#55D0EC" opacity="1.000000" stroke="none" 
	d="
M229.920273,179.748703 
	C229.709045,179.792999 229.450562,179.577591 229.122101,179.114319 
	C229.325760,179.073975 229.599380,179.281479 229.920273,179.748703 
z"/>
<path fill="#1A82B9" opacity="1.000000" stroke="none" 
	d="
M179.917526,157.348831 
	C180.134491,157.245026 180.439102,157.399307 180.863739,157.784988 
	C180.657562,157.879898 180.331375,157.743408 179.917526,157.348831 
z"/>
<path fill="#2C9ACA" opacity="1.000000" stroke="none" 
	d="
M196.974792,167.293671 
	C197.208313,167.092163 197.493500,167.228638 197.862610,167.668732 
	C197.689148,167.755783 197.382446,167.642227 196.974792,167.293671 
z"/>
<path fill="#55D0EC" opacity="1.000000" stroke="none" 
	d="
M226.798065,175.822662 
	C226.552124,175.953934 226.324875,175.778305 226.062897,175.332611 
	C226.326355,175.127396 226.589218,175.278473 226.798065,175.822662 
z"/>
<path fill="#55D0EC" opacity="1.000000" stroke="none" 
	d="
M229.064774,195.255371 
	C229.281036,195.229355 229.517227,195.461685 229.774231,195.949066 
	C229.558273,195.973984 229.321487,195.743851 229.064774,195.255371 
z"/>
<path fill="#3291BB" opacity="1.000000" stroke="none" 
	d="
M75.908707,194.321243 
	C76.128540,194.266876 76.424477,194.480835 76.770874,194.974457 
	C76.542496,195.032593 76.263649,194.811081 75.908707,194.321243 
z"/>
<path fill="#55D0EC" opacity="1.000000" stroke="none" 
	d="
M228.036713,193.286575 
	C228.254807,193.274094 228.518173,193.541702 228.806854,194.099854 
	C228.582108,194.115829 228.332031,193.841248 228.036713,193.286575 
z"/>
<path fill="#55D0EC" opacity="1.000000" stroke="none" 
	d="
M223.946838,187.345078 
	C224.163849,187.278732 224.451187,187.463654 224.792877,187.908981 
	C224.570526,187.978363 224.293839,187.787354 223.946838,187.345078 
z"/>
<path fill="#2E78A5" opacity="1.000000" stroke="none" 
	d="
M174.079041,138.243103 
	C174.304825,138.197662 174.564026,138.422852 174.895721,138.900391 
	C174.682983,138.939728 174.397736,138.726730 174.079041,138.243103 
z"/>
<path fill="#3D99BE" opacity="1.000000" stroke="none" 
	d="
M175.723297,181.075165 
	C175.736282,181.318970 175.458054,181.559998 174.898621,181.826981 
	C174.888947,181.592743 175.160507,181.332565 175.723297,181.075165 
z"/>
<path fill="#55D0EC" opacity="1.000000" stroke="none" 
	d="
M226.060272,190.255966 
	C226.266449,190.212448 226.523376,190.424637 226.842560,190.885162 
	C226.640228,190.926239 226.375610,190.718964 226.060272,190.255966 
z"/>
<path fill="#117BB4" opacity="1.000000" stroke="none" 
	d="
M180.013947,144.270996 
	C180.241516,144.114304 180.515778,144.277695 180.864471,144.733490 
	C180.696732,144.796066 180.404007,144.651138 180.013947,144.270996 
z"/>
<path fill="#32BEE7" opacity="1.000000" stroke="none" 
	d="
M222.046417,185.266388 
	C222.229691,185.211243 222.502243,185.397369 222.879608,185.812576 
	C222.701508,185.863647 222.418594,185.685638 222.046417,185.266388 
z"/>
<path fill="#32BEE7" opacity="1.000000" stroke="none" 
	d="
M223.044708,186.263992 
	C223.230133,186.212784 223.501694,186.409637 223.873856,186.842117 
	C223.693237,186.889175 223.412048,186.700607 223.044708,186.263992 
z"/>
<path fill="#F7FBFD" opacity="1.000000" stroke="none" 
	d="
M122.182022,191.822937 
	C119.933067,189.127579 120.350533,186.920288 123.306458,185.912003 
	C124.230003,185.597000 126.665771,186.815292 126.801193,187.606842 
	C127.307167,190.564270 125.699974,192.183899 122.182022,191.822937 
z"/>
<path fill="#F3F9FC" opacity="1.000000" stroke="none" 
	d="
M89.709885,191.360321 
	C89.348747,190.926147 89.253296,190.783066 89.212914,190.625839 
	C88.422073,187.546616 89.740463,185.675171 92.768150,185.574692 
	C93.565193,185.548248 95.168983,187.468796 95.119896,188.429749 
	C94.961716,191.526474 93.079933,192.749176 89.709885,191.360321 
z"/>
<path fill="#2BBCE8" opacity="1.000000" stroke="none" 
	d="
M214.107697,159.220734 
	C214.324387,159.104019 214.586670,159.294434 214.893814,159.792923 
	C214.677994,159.907959 214.416199,159.716904 214.107697,159.220734 
z"/>
</svg>